<mxfile host="Electron" agent="Mozilla/5.0 (Windows NT 10.0; Win64; x64) AppleWebKit/537.36 (KHTML, like Gecko) draw.io/24.7.17 Chrome/128.0.6613.36 Electron/32.0.1 Safari/537.36" version="24.7.17">
  <diagram name="PÃ¡gina-1" id="O923aLBre1DHCBVHL-Ho">
    <mxGraphModel dx="880" dy="532" grid="1" gridSize="10" guides="1" tooltips="1" connect="1" arrows="1" fold="1" page="1" pageScale="1" pageWidth="827" pageHeight="1169" math="0" shadow="0">
      <root>
        <mxCell id="0" />
        <mxCell id="1" parent="0" />
        <mxCell id="1QDsfXWu8Jl1KrKMZYwW-1" value="" style="ellipse;whiteSpace=wrap;html=1;aspect=fixed;" parent="1" vertex="1">
          <mxGeometry x="430" y="90" width="50" height="50" as="geometry" />
        </mxCell>
        <mxCell id="1QDsfXWu8Jl1KrKMZYwW-2" value="" style="endArrow=none;html=1;rounded=0;exitX=0.5;exitY=0;exitDx=0;exitDy=0;" parent="1" source="1QDsfXWu8Jl1KrKMZYwW-4" edge="1">
          <mxGeometry width="50" height="50" relative="1" as="geometry">
            <mxPoint x="454.76" y="190" as="sourcePoint" />
            <mxPoint x="454.76" y="140" as="targetPoint" />
          </mxGeometry>
        </mxCell>
        <mxCell id="1QDsfXWu8Jl1KrKMZYwW-3" value="Se crea el personaje&lt;div&gt;&amp;nbsp;// Crear Personaje, activar vigilancia, FIjar Energia Maxima&lt;/div&gt;" style="text;html=1;align=left;verticalAlign=middle;resizable=0;points=[];autosize=1;strokeColor=none;fillColor=none;" parent="1" vertex="1">
          <mxGeometry x="460" y="140" width="340" height="40" as="geometry" />
        </mxCell>
        <mxCell id="1QDsfXWu8Jl1KrKMZYwW-6" value="" style="rounded=0;orthogonalLoop=1;jettySize=auto;html=1;exitX=0.5;exitY=1;exitDx=0;exitDy=0;" parent="1" edge="1">
          <mxGeometry relative="1" as="geometry">
            <mxPoint x="410" y="260.00000000000006" as="sourcePoint" />
            <mxPoint x="410" y="380" as="targetPoint" />
          </mxGeometry>
        </mxCell>
        <mxCell id="1QDsfXWu8Jl1KrKMZYwW-18" style="edgeStyle=orthogonalEdgeStyle;rounded=0;orthogonalLoop=1;jettySize=auto;html=1;entryX=0.5;entryY=0;entryDx=0;entryDy=0;" parent="1" edge="1">
          <mxGeometry relative="1" as="geometry">
            <mxPoint x="490" y="260.00000000000006" as="sourcePoint" />
            <mxPoint x="490" y="380" as="targetPoint" />
          </mxGeometry>
        </mxCell>
        <mxCell id="1QDsfXWu8Jl1KrKMZYwW-4" value="Vigilando" style="rounded=1;whiteSpace=wrap;html=1;" parent="1" vertex="1">
          <mxGeometry x="395" y="200" width="120" height="60" as="geometry" />
        </mxCell>
        <mxCell id="1QDsfXWu8Jl1KrKMZYwW-11" style="edgeStyle=orthogonalEdgeStyle;rounded=0;orthogonalLoop=1;jettySize=auto;html=1;curved=1;exitX=0.998;exitY=0.28;exitDx=0;exitDy=0;exitPerimeter=0;" parent="1" source="1QDsfXWu8Jl1KrKMZYwW-5" edge="1">
          <mxGeometry relative="1" as="geometry">
            <mxPoint x="525" y="380" as="targetPoint" />
            <mxPoint x="515" y="409.75800000000004" as="sourcePoint" />
            <Array as="points">
              <mxPoint x="515" y="400" />
              <mxPoint x="556" y="400" />
              <mxPoint x="556" y="380" />
            </Array>
          </mxGeometry>
        </mxCell>
        <mxCell id="1QDsfXWu8Jl1KrKMZYwW-16" value="" style="edgeStyle=orthogonalEdgeStyle;rounded=0;orthogonalLoop=1;jettySize=auto;html=1;" parent="1" source="1QDsfXWu8Jl1KrKMZYwW-5" target="1QDsfXWu8Jl1KrKMZYwW-15" edge="1">
          <mxGeometry relative="1" as="geometry" />
        </mxCell>
        <mxCell id="1QDsfXWu8Jl1KrKMZYwW-27" style="edgeStyle=orthogonalEdgeStyle;rounded=0;orthogonalLoop=1;jettySize=auto;html=1;entryX=0.5;entryY=1;entryDx=0;entryDy=0;" parent="1" edge="1">
          <mxGeometry relative="1" as="geometry">
            <mxPoint x="440" y="380" as="sourcePoint" />
            <mxPoint x="440" y="260" as="targetPoint" />
          </mxGeometry>
        </mxCell>
        <mxCell id="1QDsfXWu8Jl1KrKMZYwW-5" value="Combatiendo" style="whiteSpace=wrap;html=1;rounded=1;" parent="1" vertex="1">
          <mxGeometry x="395" y="380" width="120" height="60" as="geometry" />
        </mxCell>
        <mxCell id="1QDsfXWu8Jl1KrKMZYwW-7" value="&lt;h5 style=&quot;font-size: 8px;&quot;&gt;&lt;span style=&quot;font-weight: normal;&quot;&gt;&lt;font style=&quot;font-size: 8px;&quot;&gt;Se detecta enemigo&amp;nbsp;&lt;br&gt;&lt;/font&gt;&lt;font style=&quot;font-size: 8px;&quot;&gt;[Enemigo detectado fuera del castillo]&lt;br&gt;&lt;/font&gt;&lt;font style=&quot;font-size: 8px;&quot;&gt;// Habilitar arco, habilitar flecha&lt;/font&gt;&lt;/span&gt;&lt;/h5&gt;" style="text;html=1;align=right;verticalAlign=middle;resizable=0;points=[];autosize=1;strokeColor=none;fillColor=none;" parent="1" vertex="1">
          <mxGeometry x="240" y="280" width="160" height="70" as="geometry" />
        </mxCell>
        <mxCell id="1QDsfXWu8Jl1KrKMZYwW-12" value="&lt;h4 style=&quot;font-size: 8px;&quot;&gt;&lt;span style=&quot;font-weight: normal;&quot;&gt;&lt;font style=&quot;font-size: 8px;&quot;&gt;Se recibe un golpe&amp;nbsp;&lt;br&gt;&lt;/font&gt;&lt;font style=&quot;font-size: 8px;&quot;&gt;[Energia&amp;gt;30]&lt;br&gt;&lt;/font&gt;&lt;font style=&quot;font-size: 8px;&quot;&gt;//decrementar energia en 10&lt;/font&gt;&lt;/span&gt;&lt;/h4&gt;" style="text;html=1;align=center;verticalAlign=middle;resizable=0;points=[];autosize=1;strokeColor=none;fillColor=none;" parent="1" vertex="1">
          <mxGeometry x="545" y="350" width="120" height="60" as="geometry" />
        </mxCell>
        <mxCell id="1QDsfXWu8Jl1KrKMZYwW-14" value="&lt;h4 style=&quot;font-size: 8px;&quot;&gt;&lt;span style=&quot;font-weight: normal;&quot;&gt;&lt;font style=&quot;font-size: 8px;&quot;&gt;Se recibe un golpe&amp;nbsp;&lt;br&gt;&lt;/font&gt;&lt;font style=&quot;font-size: 8px;&quot;&gt;[Energia = 30]&lt;br&gt;&lt;/font&gt;&lt;font style=&quot;font-size: 8px;&quot;&gt;//Decrementar Energia en 10, Habilitar Huida, guardar armas&lt;/font&gt;&lt;/span&gt;&lt;/h4&gt;" style="text;html=1;align=left;verticalAlign=middle;resizable=0;points=[];autosize=1;strokeColor=none;fillColor=none;" parent="1" vertex="1">
          <mxGeometry x="455" y="430" width="240" height="60" as="geometry" />
        </mxCell>
        <mxCell id="1QDsfXWu8Jl1KrKMZYwW-25" style="edgeStyle=orthogonalEdgeStyle;rounded=0;orthogonalLoop=1;jettySize=auto;html=1;entryX=0;entryY=0.5;entryDx=0;entryDy=0;" parent="1" source="1QDsfXWu8Jl1KrKMZYwW-15" target="1QDsfXWu8Jl1KrKMZYwW-4" edge="1">
          <mxGeometry relative="1" as="geometry">
            <mxPoint x="260" y="260" as="targetPoint" />
            <Array as="points">
              <mxPoint x="240" y="550" />
              <mxPoint x="240" y="230" />
            </Array>
          </mxGeometry>
        </mxCell>
        <mxCell id="1QDsfXWu8Jl1KrKMZYwW-15" value="Huyendo" style="whiteSpace=wrap;html=1;rounded=1;" parent="1" vertex="1">
          <mxGeometry x="395" y="520" width="120" height="60" as="geometry" />
        </mxCell>
        <mxCell id="1QDsfXWu8Jl1KrKMZYwW-19" value="&lt;h5 style=&quot;font-size: 9px;&quot;&gt;&lt;span style=&quot;font-weight: normal;&quot;&gt;&lt;font style=&quot;font-size: 9px;&quot;&gt;Se detecta enemigo&lt;br&gt;&lt;/font&gt;&lt;font style=&quot;font-size: 9px;&quot;&gt;[Enemigo detectado dentro del castillo]&lt;br&gt;&lt;/font&gt;&lt;font style=&quot;font-size: 9px;&quot;&gt;// Habilitar Espada&lt;/font&gt;&lt;/span&gt;&lt;/h5&gt;" style="text;html=1;align=left;verticalAlign=middle;resizable=0;points=[];autosize=1;strokeColor=none;fillColor=none;" parent="1" vertex="1">
          <mxGeometry x="495" y="275" width="180" height="80" as="geometry" />
        </mxCell>
        <mxCell id="1QDsfXWu8Jl1KrKMZYwW-20" style="edgeStyle=orthogonalEdgeStyle;rounded=0;orthogonalLoop=1;jettySize=auto;html=1;curved=1;exitX=0.998;exitY=0.28;exitDx=0;exitDy=0;exitPerimeter=0;" parent="1" edge="1">
          <mxGeometry relative="1" as="geometry">
            <mxPoint x="525" y="540" as="targetPoint" />
            <mxPoint x="515" y="557" as="sourcePoint" />
            <Array as="points">
              <mxPoint x="515" y="560" />
              <mxPoint x="556" y="560" />
              <mxPoint x="556" y="540" />
            </Array>
          </mxGeometry>
        </mxCell>
        <mxCell id="1QDsfXWu8Jl1KrKMZYwW-21" value="&lt;h4 style=&quot;font-size: 8px;&quot;&gt;&lt;span style=&quot;font-weight: normal;&quot;&gt;&lt;font style=&quot;font-size: 8px;&quot;&gt;Se recibe un golpe&amp;nbsp;&lt;br&gt;&lt;/font&gt;&lt;font style=&quot;font-size: 8px;&quot;&gt;[Energia&amp;gt;10]&lt;br&gt;&lt;/font&gt;&lt;font style=&quot;font-size: 8px;&quot;&gt;//decrementar energia en 10&lt;/font&gt;&lt;/span&gt;&lt;/h4&gt;" style="text;html=1;align=left;verticalAlign=middle;resizable=0;points=[];autosize=1;strokeColor=none;fillColor=none;" parent="1" vertex="1">
          <mxGeometry x="570" y="520" width="120" height="60" as="geometry" />
        </mxCell>
        <mxCell id="1QDsfXWu8Jl1KrKMZYwW-22" value="" style="ellipse;shape=doubleEllipse;whiteSpace=wrap;html=1;aspect=fixed;" parent="1" vertex="1">
          <mxGeometry x="430" y="630" width="50" height="50" as="geometry" />
        </mxCell>
        <mxCell id="1QDsfXWu8Jl1KrKMZYwW-23" value="" style="endArrow=none;html=1;rounded=0;" parent="1" edge="1">
          <mxGeometry width="50" height="50" relative="1" as="geometry">
            <mxPoint x="455" y="630" as="sourcePoint" />
            <mxPoint x="455" y="580" as="targetPoint" />
          </mxGeometry>
        </mxCell>
        <mxCell id="1QDsfXWu8Jl1KrKMZYwW-24" value="&lt;h4 style=&quot;font-size: 8px;&quot;&gt;&lt;span style=&quot;font-weight: normal;&quot;&gt;&lt;font style=&quot;font-size: 8px;&quot;&gt;Se recibe un golpe&amp;nbsp;&lt;br&gt;&lt;/font&gt;&lt;font style=&quot;font-size: 8px;&quot;&gt;[Energia&amp;lt;=10]&lt;br&gt;&lt;/font&gt;&lt;font style=&quot;font-size: 8px;&quot;&gt;// Decrementar en 10 la energia, Borrar Personaje&lt;/font&gt;&lt;/span&gt;&lt;/h4&gt;" style="text;html=1;align=left;verticalAlign=middle;resizable=0;points=[];autosize=1;strokeColor=none;fillColor=none;" parent="1" vertex="1">
          <mxGeometry x="469" y="575" width="200" height="60" as="geometry" />
        </mxCell>
        <mxCell id="1QDsfXWu8Jl1KrKMZYwW-26" value="Se pierde de vista al enemigo&lt;div&gt;&amp;nbsp;[Enemigo no detectado]&lt;/div&gt;&lt;div&gt;// Incrementar Energia en 30%&lt;/div&gt;" style="text;html=1;align=center;verticalAlign=middle;resizable=0;points=[];autosize=1;strokeColor=none;fillColor=none;" parent="1" vertex="1">
          <mxGeometry x="50" y="360" width="190" height="60" as="geometry" />
        </mxCell>
        <mxCell id="1QDsfXWu8Jl1KrKMZYwW-28" value="&lt;h4 style=&quot;font-size: 8px;&quot;&gt;&lt;span style=&quot;font-weight: normal;&quot;&gt;Se gana&lt;br&gt;combate&lt;br&gt;/Incrementar&lt;br&gt;Energia en&lt;br&gt;50%&lt;/span&gt;&lt;/h4&gt;" style="text;html=1;align=left;verticalAlign=middle;resizable=0;points=[];autosize=1;strokeColor=none;fillColor=none;" parent="1" vertex="1">
          <mxGeometry x="440" y="260" width="70" height="80" as="geometry" />
        </mxCell>
      </root>
    </mxGraphModel>
  </diagram>
</mxfile>
